<svg xmlns="http://www.w3.org/2000/svg" viewbox="0 0 40 40" width="40" height="40">
	<path fill="white" d="m0 20c0 11.046 8.9542 20 20 20 11.046 0 20-8.954 20-20 0 -11.046-8.9542-20-20-20h-12c-5 0-8 3-8 8zm19.5-12.5c5 0 7.4998 2.5002 7.4998 6.0002 0 5.5-6.0002 5.9999-6.0002 9.9999 0 1 0.50023 1.5002 0.50023 1.5002h-4.5s-0.50023-1.0001-0.50023-2.5001c0-4.5 5.0002-4.9999 5.0002-8 0-1.5-0.97897-2.5001-2.5001-2.5001-3 0-4.9997 1.9999-4.9997 1.9999v-4.9997s1.9999-1.5002 5.4999-1.5002zm 0 20c2 0 2.9998 1.0001 2.9998 2.5001s-0.99982 2.4996-2.9998 2.4996-3.0003-0.99959-3.0003-2.4996 1.0003-2.5001 3.0003-2.5001z" />
</svg>