<svg xmlns="http://www.w3.org/2000/svg" viewBox="0 0 95.711 95.711" width="95.711" height="95.711">
	<path fill="white"
		d="M 32.059531,94.736733 C 30.305686,93.667273 27.828844,89.242623 25.130126,82.357973 19.608536,68.271933 13.163955,44.816062 9.8156763,26.619078 8.7610873,20.88767 8.3260843,11.653114 8.9660823,8.583263 9.8033263,4.56729 11.937179,2.480681 15.65742,2.040074 l 1.722859,-0.204047 0.957354,1.633604 c 2.32603,3.96907 2.765852,6.357034 3.546447,19.255041 0.505259,8.348515 1.318232,13.397686 2.373679,14.742323 0.726564,0.925636 1.60388,0.440309 2.693197,-1.489862 2.170229,-3.845433 13.173026,-15.769425 17.341021,-18.792875 5.20385,-3.774857 11.493454,-5.734625 18.404466,-5.734625 2.33069,0 2.29701,-0.07207 1.575234,3.370467 -0.246285,1.174662 -0.875252,2.865152 -1.397702,3.756649 -1.470187,2.508688 -5.858464,6.955202 -11.878253,12.035901 -6.2597,5.283182 -14.483775,13.480133 -14.483775,14.436006 0,0.353412 0.198437,0.696626 0.440972,0.762702 4.274456,1.164515 19.46051,7.813615 29.054358,12.721225 10.948726,5.60068 17.778535,10.16419 18.970191,12.67542 0.874299,1.84245 0.762063,5.68216 -0.223161,7.63443 -1.074328,2.12884 -1.971689,2.53039 -5.027083,2.24955 -6.466452,-0.59437 -11.213878,-2.73898 -23.128933,-10.4483 -10.773618,-6.97078 -15.617729,-9.3518 -20.750452,-10.19945 -3.186952,-0.52631 -3.774652,-0.1386 -3.692708,2.4361 0.07606,2.38984 1.008553,4.54222 4.388269,10.12903 4.32483,7.14911 5.575265,11.66431 4.570579,16.50387 -0.512089,2.46671 -1.564157,3.78726 -3.974021,4.98814 -2.169403,1.08106 -3.585905,1.14668 -5.080427,0.23536 z" />
</svg>