<svg xmlns="http://www.w3.org/2000/svg" width="325.1" height="268.1" version="1.1" viewBox="0 0 325.1 268.1">
 <path fill="white" d="m324.95 0.15109a165.2 165.2 0 0 0-162.4 108.82 165.2 165.2 0 0 0-162.4-108.82 165.5 165.5 0 0 0 72.06 143.64 88.81 88.81 0 0 1 38.53 73.45v50.86h103.63v-50.86a88.8 88.8 0 0 1 38.52-73.45 165.41 165.41 0 0 0 72.06-143.64z"/>
 <path fill="white" d="m78.1 217.24a56.09 56.09 0 0 0-24.27-46.49 198.74 198.74 0 0 1-28.54-23.66 196.87 196.87 0 0 1-25.29-31.12v152.13h78.1z"/>
 <path fill="white" d="m247 217.24a56.09 56.09 0 0 1 24.27-46.49 198.74 198.74 0 0 0 28.54-23.66 196.87 196.87 0 0 0 25.29-31.12v152.13h-78.1z"/>
</svg>
