<svg xmlns="http://www.w3.org/2000/svg" viewBox="0 0 64 64" width="64" height="64">
	<path fill="white"
		d="m53.202 47.821c-4.5085 4.6003-10.358 7.6551-16.709 8.7266 3.0722 3.313 7.5055 7.4523 10.507 7.4523 4 0 6.9996-3.0001 6.9996-7.0001 0-1.7784-0.40635-5.7464-0.79788-9.1788zm-21.702-47.821c-14.635 1.7872e-4 -26.5 11.865-26.5 26.5 1.784e-4 14.635 11.864 26.499 26.5 26.5 14.635 1.07e-4 26.5-11.864 26.5-26.5 1.07e-4 -14.636-11.864-26.5-26.5-26.5zm5.4999 18.5c1.3689 0 2.6331 0.56194 3.5357 1.4645 0.90256 0.90256 1.4645 2.1663 1.4645 3.5352 0 1.3689-0.56194 2.6331-1.4645 3.5357-0.4143 0.41431-0.90563 0.75576-1.4475 1.0051l6.6766 12.518c0.5197 0.97465 0.15091 2.1861-0.82372 2.7058-0.97451 0.51978-2.1859 0.15123-2.7058-0.82321l-6.7288-12.617c-0.73999 0.42851-1.5999 0.67593-2.5063 0.67593-2.9e-4 0-7.34e-4 1e-6 -1e-3 0-0.14205 0.18972-0.29686 0.36869-0.46354 0.53537-0.4143 0.41431-0.90563 0.75576-1.4475 1.0051l6.6766 12.519c0.51978 0.97451 0.15123 2.1859-0.82321 2.7058-0.97477 0.52005-2.1866 0.15121-2.7063-0.82372l-6.7288-12.617c-0.73999 0.42851-1.5999 0.67644-2.5063 0.67644-1.3689 0-2.6331-0.56194-3.5357-1.4645-0.90256-0.90256-1.4645-2.1668-1.4645-3.5357s0.56195-2.6331 1.4645-3.5357c0.90256-0.90256 2.1668-1.4645 3.5357-1.4645h1e-3c0.14205-0.18972 0.29686-0.36869 0.46354-0.53537 0.90256-0.90256 2.1663-1.4645 3.5352-1.4645h1e-3c0.14205-0.18972 0.29686-0.36869 0.46354-0.53537 0.90256-0.90256 2.1668-1.4645 3.5357-1.4645h1e-3c0.14205-0.18972 0.29686-0.36869 0.46354-0.53537 0.90256-0.90256 2.1663-1.4645 3.5352-1.4645z" />
</svg>